<?xml version="1.0" encoding="UTF-8" standalone="no"?>
<!DOCTYPE svg PUBLIC "-//W3C//DTD SVG 1.1//EN"
 "http://www.w3.org/Graphics/SVG/1.1/DTD/svg11.dtd">
<!-- Generated by graphviz version 9.0.0 (20230911.1827)
 -->
<!-- Pages: 1 -->
<svg width="1080pt" height="4094pt"
 viewBox="0.00 0.00 1080.38 4094.00" xmlns="http://www.w3.org/2000/svg" xmlns:xlink="http://www.w3.org/1999/xlink">
<g id="graph0" class="graph" transform="scale(1 1) rotate(0) translate(4 4090)">
<polygon fill="white" stroke="none" points="-4,4 -4,-4090 1076.38,-4090 1076.38,4 -4,4"/>
<!-- div_nll_normalized -->
<g id="node1" class="node">
<title>div_nll_normalized</title>
<path fill="slateblue" stroke="black" d="M966.8,-103.38C966.8,-103.38 945.75,-94.62 945.75,-94.62 940.21,-92.31 940.21,-87.69 945.75,-85.38 945.75,-85.38 966.8,-76.62 966.8,-76.62 972.34,-74.31 983.41,-74.31 988.95,-76.62 988.95,-76.62 1010,-85.38 1010,-85.38 1015.54,-87.69 1015.54,-92.31 1010,-94.62 1010,-94.62 988.95,-103.38 988.95,-103.38 983.41,-105.69 972.34,-105.69 966.8,-103.38"/>
<text text-anchor="middle" x="977.88" y="-84.95" font-family="Times,serif" font-size="14.00">div</text>
</g>
<!-- nll_normalized -->
<g id="node2" class="node">
<title>nll_normalized</title>
<ellipse fill="lightgrey" stroke="black" cx="977.88" cy="-18" rx="18" ry="18"/>
<text text-anchor="middle" x="977.88" y="-12.95" font-family="Times,serif" font-size="14.00">nll_normalized</text>
</g>
<!-- div_nll_normalized&#45;&gt;nll_normalized -->
<g id="edge1" class="edge">
<title>div_nll_normalized&#45;&gt;nll_normalized</title>
<path fill="none" stroke="black" d="M977.88,-72.05C977.88,-64.57 977.88,-55.58 977.88,-47.14"/>
<polygon fill="black" stroke="black" points="981.38,-47.3 977.88,-37.3 974.38,-47.3 981.38,-47.3"/>
</g>
<!-- nll -->
<g id="node3" class="node">
<title>nll</title>
<polygon fill="lightgrey" stroke="black" points="884.38,-144.5 884.38,-185.5 969.38,-185.5 969.38,-144.5 884.38,-144.5"/>
<text text-anchor="middle" x="926.88" y="-168.2" font-family="Times,serif" font-size="14.00">nll</text>
<text text-anchor="middle" x="926.88" y="-151.7" font-family="Times,serif" font-size="14.00">shape=(1, 1)</text>
</g>
<!-- nll&#45;&gt;div_nll_normalized -->
<g id="edge2" class="edge">
<title>nll&#45;&gt;div_nll_normalized</title>
<path fill="none" stroke="black" d="M940.81,-144.05C947.38,-134.65 955.24,-123.4 962.03,-113.67"/>
<polygon fill="black" stroke="black" points="964.9,-115.68 967.76,-105.48 959.16,-111.67 964.9,-115.68"/>
</g>
<!-- trh -->
<g id="node4" class="node">
<title>trh</title>
<polygon fill="lightgrey" stroke="black" points="987.38,-144.5 987.38,-185.5 1072.38,-185.5 1072.38,-144.5 987.38,-144.5"/>
<text text-anchor="middle" x="1029.88" y="-168.2" font-family="Times,serif" font-size="14.00">trh</text>
<text text-anchor="middle" x="1029.88" y="-151.7" font-family="Times,serif" font-size="14.00">shape=(1, 1)</text>
</g>
<!-- trh&#45;&gt;div_nll_normalized -->
<g id="edge3" class="edge">
<title>trh&#45;&gt;div_nll_normalized</title>
<path fill="none" stroke="black" d="M1015.67,-144.05C1008.9,-134.55 1000.78,-123.16 993.81,-113.37"/>
<polygon fill="black" stroke="black" points="996.84,-111.59 988.19,-105.47 991.14,-115.65 996.84,-111.59"/>
</g>
<!-- neg_nll -->
<g id="node5" class="node">
<title>neg_nll</title>
<path fill="chocolate" stroke="black" d="M915.8,-253.38C915.8,-253.38 894.75,-244.62 894.75,-244.62 889.21,-242.31 889.21,-237.69 894.75,-235.38 894.75,-235.38 915.8,-226.62 915.8,-226.62 921.34,-224.31 932.41,-224.31 937.95,-226.62 937.95,-226.62 959,-235.38 959,-235.38 964.54,-237.69 964.54,-242.31 959,-244.62 959,-244.62 937.95,-253.38 937.95,-253.38 932.41,-255.69 921.34,-255.69 915.8,-253.38"/>
<text text-anchor="middle" x="926.88" y="-234.95" font-family="Times,serif" font-size="14.00">neg</text>
</g>
<!-- neg_nll&#45;&gt;nll -->
<g id="edge4" class="edge">
<title>neg_nll&#45;&gt;nll</title>
<path fill="none" stroke="black" d="M926.88,-222.07C926.88,-214.66 926.88,-205.71 926.88,-197.17"/>
<polygon fill="black" stroke="black" points="930.38,-197.46 926.88,-187.46 923.38,-197.46 930.38,-197.46"/>
</g>
<!-- lgsum -->
<g id="node6" class="node">
<title>lgsum</title>
<polygon fill="lightgrey" stroke="black" points="884.38,-294.5 884.38,-335.5 969.38,-335.5 969.38,-294.5 884.38,-294.5"/>
<text text-anchor="middle" x="926.88" y="-318.2" font-family="Times,serif" font-size="14.00">lgsum</text>
<text text-anchor="middle" x="926.88" y="-301.7" font-family="Times,serif" font-size="14.00">shape=(1, 1)</text>
</g>
<!-- lgsum&#45;&gt;neg_nll -->
<g id="edge5" class="edge">
<title>lgsum&#45;&gt;neg_nll</title>
<path fill="none" stroke="black" d="M926.88,-294.05C926.88,-286.45 926.88,-277.63 926.88,-269.4"/>
<polygon fill="black" stroke="black" points="930.38,-269.47 926.88,-259.47 923.38,-269.47 930.38,-269.47"/>
</g>
<!-- reduce_sum_lgsum -->
<g id="node7" class="node">
<title>reduce_sum_lgsum</title>
<path fill="aquamarine" stroke="black" d="M915.8,-403.38C915.8,-403.38 894.75,-394.62 894.75,-394.62 889.21,-392.31 889.21,-387.69 894.75,-385.38 894.75,-385.38 915.8,-376.62 915.8,-376.62 921.34,-374.31 932.41,-374.31 937.95,-376.62 937.95,-376.62 959,-385.38 959,-385.38 964.54,-387.69 964.54,-392.31 959,-394.62 959,-394.62 937.95,-403.38 937.95,-403.38 932.41,-405.69 921.34,-405.69 915.8,-403.38"/>
<text text-anchor="middle" x="926.88" y="-384.95" font-family="Times,serif" font-size="14.00">reduce_sum</text>
</g>
<!-- reduce_sum_lgsum&#45;&gt;lgsum -->
<g id="edge6" class="edge">
<title>reduce_sum_lgsum&#45;&gt;lgsum</title>
<path fill="none" stroke="black" d="M926.88,-372.07C926.88,-364.66 926.88,-355.71 926.88,-347.17"/>
<polygon fill="black" stroke="black" points="930.38,-347.46 926.88,-337.46 923.38,-347.46 930.38,-347.46"/>
</g>
<!-- se -->
<g id="node8" class="node">
<title>se</title>
<polygon fill="lightgrey" stroke="black" points="881,-444.5 881,-485.5 972.75,-485.5 972.75,-444.5 881,-444.5"/>
<text text-anchor="middle" x="926.88" y="-468.2" font-family="Times,serif" font-size="14.00">se</text>
<text text-anchor="middle" x="926.88" y="-451.7" font-family="Times,serif" font-size="14.00">shape=(20, 1)</text>
</g>
<!-- se&#45;&gt;reduce_sum_lgsum -->
<g id="edge7" class="edge">
<title>se&#45;&gt;reduce_sum_lgsum</title>
<path fill="none" stroke="black" d="M926.88,-444.05C926.88,-436.45 926.88,-427.63 926.88,-419.4"/>
<polygon fill="black" stroke="black" points="930.38,-419.47 926.88,-409.47 923.38,-419.47 930.38,-419.47"/>
</g>
<!-- select_se -->
<g id="node9" class="node">
<title>select_se</title>
<path fill="bisque" stroke="black" d="M915.8,-553.38C915.8,-553.38 894.75,-544.62 894.75,-544.62 889.21,-542.31 889.21,-537.69 894.75,-535.38 894.75,-535.38 915.8,-526.62 915.8,-526.62 921.34,-524.31 932.41,-524.31 937.95,-526.62 937.95,-526.62 959,-535.38 959,-535.38 964.54,-537.69 964.54,-542.31 959,-544.62 959,-544.62 937.95,-553.38 937.95,-553.38 932.41,-555.69 921.34,-555.69 915.8,-553.38"/>
<text text-anchor="middle" x="926.88" y="-534.95" font-family="Times,serif" font-size="14.00">select</text>
</g>
<!-- select_se&#45;&gt;se -->
<g id="edge8" class="edge">
<title>select_se&#45;&gt;se</title>
<path fill="none" stroke="black" d="M926.88,-522.07C926.88,-514.66 926.88,-505.71 926.88,-497.17"/>
<polygon fill="black" stroke="black" points="930.38,-497.46 926.88,-487.46 923.38,-497.46 930.38,-497.46"/>
</g>
<!-- log_sm -->
<g id="node10" class="node">
<title>log_sm</title>
<polygon fill="lightgrey" stroke="black" points="821.62,-594.5 821.62,-635.5 920.12,-635.5 920.12,-594.5 821.62,-594.5"/>
<text text-anchor="middle" x="870.88" y="-618.2" font-family="Times,serif" font-size="14.00">log_sm</text>
<text text-anchor="middle" x="870.88" y="-601.7" font-family="Times,serif" font-size="14.00">shape=(20, 10)</text>
</g>
<!-- log_sm&#45;&gt;select_se -->
<g id="edge9" class="edge">
<title>log_sm&#45;&gt;select_se</title>
<path fill="none" stroke="black" d="M886.18,-594.05C893.46,-584.55 902.21,-573.16 909.72,-563.37"/>
<polygon fill="black" stroke="black" points="912.49,-565.51 915.8,-555.44 906.93,-561.25 912.49,-565.51"/>
</g>
<!-- label -->
<g id="node11" class="node">
<title>label</title>
<polygon fill="lightgrey" stroke="black" points="938,-594.5 938,-635.5 1029.75,-635.5 1029.75,-594.5 938,-594.5"/>
<text text-anchor="middle" x="983.88" y="-618.2" font-family="Times,serif" font-size="14.00">label</text>
<text text-anchor="middle" x="983.88" y="-601.7" font-family="Times,serif" font-size="14.00">shape=(20, 1)</text>
</g>
<!-- label&#45;&gt;select_se -->
<g id="edge10" class="edge">
<title>label&#45;&gt;select_se</title>
<path fill="none" stroke="black" d="M968.3,-594.05C960.71,-584.33 951.56,-572.61 943.79,-562.67"/>
<polygon fill="black" stroke="black" points="946.71,-560.72 937.8,-554.99 941.2,-565.03 946.71,-560.72"/>
</g>
<!-- sub_log_sm -->
<g id="node12" class="node">
<title>sub_log_sm</title>
<path fill="#ffa07a" stroke="black" d="M859.8,-703.38C859.8,-703.38 838.75,-694.62 838.75,-694.62 833.21,-692.31 833.21,-687.69 838.75,-685.38 838.75,-685.38 859.8,-676.62 859.8,-676.62 865.34,-674.31 876.41,-674.31 881.95,-676.62 881.95,-676.62 903,-685.38 903,-685.38 908.54,-687.69 908.54,-692.31 903,-694.62 903,-694.62 881.95,-703.38 881.95,-703.38 876.41,-705.69 865.34,-705.69 859.8,-703.38"/>
<text text-anchor="middle" x="870.88" y="-684.95" font-family="Times,serif" font-size="14.00">sub</text>
</g>
<!-- sub_log_sm&#45;&gt;log_sm -->
<g id="edge11" class="edge">
<title>sub_log_sm&#45;&gt;log_sm</title>
<path fill="none" stroke="black" d="M870.88,-672.07C870.88,-664.66 870.88,-655.71 870.88,-647.17"/>
<polygon fill="black" stroke="black" points="874.38,-647.46 870.88,-637.46 867.38,-647.46 874.38,-647.46"/>
</g>
<!-- su -->
<g id="node13" class="node">
<title>su</title>
<polygon fill="lightgrey" stroke="black" points="811.62,-1344.5 811.62,-1385.5 910.12,-1385.5 910.12,-1344.5 811.62,-1344.5"/>
<text text-anchor="middle" x="860.88" y="-1368.2" font-family="Times,serif" font-size="14.00">su</text>
<text text-anchor="middle" x="860.88" y="-1351.7" font-family="Times,serif" font-size="14.00">shape=(20, 10)</text>
</g>
<!-- su&#45;&gt;sub_log_sm -->
<g id="edge12" class="edge">
<title>su&#45;&gt;sub_log_sm</title>
<path fill="none" stroke="black" d="M853.11,-1344.24C842.8,-1316.19 825.88,-1263 825.88,-1216 825.88,-1216 825.88,-1216 825.88,-839 825.88,-795.94 831.06,-784.78 844.88,-744 848.2,-734.2 852.94,-723.89 857.47,-714.99"/>
<polygon fill="black" stroke="black" points="860.48,-716.78 862.07,-706.31 854.3,-713.51 860.48,-716.78"/>
</g>
<!-- exp_ex -->
<g id="node37" class="node">
<title>exp_ex</title>
<path fill="#caff70" stroke="black" d="M888.8,-1303.38C888.8,-1303.38 867.75,-1294.62 867.75,-1294.62 862.21,-1292.31 862.21,-1287.69 867.75,-1285.38 867.75,-1285.38 888.8,-1276.62 888.8,-1276.62 894.34,-1274.31 905.41,-1274.31 910.95,-1276.62 910.95,-1276.62 932,-1285.38 932,-1285.38 937.54,-1287.69 937.54,-1292.31 932,-1294.62 932,-1294.62 910.95,-1303.38 910.95,-1303.38 905.41,-1305.69 894.34,-1305.69 888.8,-1303.38"/>
<text text-anchor="middle" x="899.88" y="-1284.95" font-family="Times,serif" font-size="14.00">exp</text>
</g>
<!-- su&#45;&gt;exp_ex -->
<g id="edge38" class="edge">
<title>su&#45;&gt;exp_ex</title>
<path fill="none" stroke="black" d="M871.53,-1344.05C876.32,-1335.1 882,-1324.45 887.02,-1315.06"/>
<polygon fill="black" stroke="black" points="889.98,-1316.94 891.61,-1306.48 883.81,-1313.65 889.98,-1316.94"/>
</g>
<!-- denom_broadcasted -->
<g id="node14" class="node">
<title>denom_broadcasted</title>
<polygon fill="lightgrey" stroke="black" points="853.5,-744.5 853.5,-785.5 978.25,-785.5 978.25,-744.5 853.5,-744.5"/>
<text text-anchor="middle" x="915.88" y="-768.2" font-family="Times,serif" font-size="14.00">denom_broadcasted</text>
<text text-anchor="middle" x="915.88" y="-751.7" font-family="Times,serif" font-size="14.00">shape=(20, 10)</text>
</g>
<!-- denom_broadcasted&#45;&gt;sub_log_sm -->
<g id="edge13" class="edge">
<title>denom_broadcasted&#45;&gt;sub_log_sm</title>
<path fill="none" stroke="black" d="M903.58,-744.05C897.92,-734.88 891.17,-723.93 885.28,-714.37"/>
<polygon fill="black" stroke="black" points="888.33,-712.65 880.11,-705.98 882.38,-716.33 888.33,-712.65"/>
</g>
<!-- sub_su -->
<g id="node15" class="node">
<title>sub_su</title>
<path fill="#ffa07a" stroke="black" d="M849.8,-1453.38C849.8,-1453.38 828.75,-1444.62 828.75,-1444.62 823.21,-1442.31 823.21,-1437.69 828.75,-1435.38 828.75,-1435.38 849.8,-1426.62 849.8,-1426.62 855.34,-1424.31 866.41,-1424.31 871.95,-1426.62 871.95,-1426.62 893,-1435.38 893,-1435.38 898.54,-1437.69 898.54,-1442.31 893,-1444.62 893,-1444.62 871.95,-1453.38 871.95,-1453.38 866.41,-1455.69 855.34,-1455.69 849.8,-1453.38"/>
<text text-anchor="middle" x="860.88" y="-1434.95" font-family="Times,serif" font-size="14.00">sub</text>
</g>
<!-- sub_su&#45;&gt;su -->
<g id="edge14" class="edge">
<title>sub_su&#45;&gt;su</title>
<path fill="none" stroke="black" d="M860.88,-1422.07C860.88,-1414.66 860.88,-1405.71 860.88,-1397.17"/>
<polygon fill="black" stroke="black" points="864.38,-1397.46 860.88,-1387.46 857.38,-1397.46 864.38,-1397.46"/>
</g>
<!-- lin3 -->
<g id="node16" class="node">
<title>lin3</title>
<polygon fill="lightgrey" stroke="black" points="820.62,-1794.5 820.62,-1835.5 919.12,-1835.5 919.12,-1794.5 820.62,-1794.5"/>
<text text-anchor="middle" x="869.88" y="-1818.2" font-family="Times,serif" font-size="14.00">lin3</text>
<text text-anchor="middle" x="869.88" y="-1801.7" font-family="Times,serif" font-size="14.00">shape=(20, 10)</text>
</g>
<!-- lin3&#45;&gt;sub_su -->
<g id="edge15" class="edge">
<title>lin3&#45;&gt;sub_su</title>
<path fill="none" stroke="black" d="M858.32,-1794.07C852.67,-1783.62 846.18,-1770.43 841.88,-1758 828.2,-1718.55 822.88,-1707.75 822.88,-1666 822.88,-1666 822.88,-1666 822.88,-1589 822.88,-1544.74 839.02,-1495.3 850.26,-1466.24"/>
<polygon fill="black" stroke="black" points="853.41,-1467.79 853.87,-1457.21 846.91,-1465.2 853.41,-1467.79"/>
</g>
<!-- batched_reduce_max_pyl -->
<g id="node32" class="node">
<title>batched_reduce_max_pyl</title>
<path fill="lightgoldenrodyellow" stroke="black" d="M905.8,-1753.38C905.8,-1753.38 884.75,-1744.62 884.75,-1744.62 879.21,-1742.31 879.21,-1737.69 884.75,-1735.38 884.75,-1735.38 905.8,-1726.62 905.8,-1726.62 911.34,-1724.31 922.41,-1724.31 927.95,-1726.62 927.95,-1726.62 949,-1735.38 949,-1735.38 954.54,-1737.69 954.54,-1742.31 949,-1744.62 949,-1744.62 927.95,-1753.38 927.95,-1753.38 922.41,-1755.69 911.34,-1755.69 905.8,-1753.38"/>
<text text-anchor="middle" x="916.88" y="-1734.95" font-family="Times,serif" font-size="14.00">batched_reduce_max</text>
</g>
<!-- lin3&#45;&gt;batched_reduce_max_pyl -->
<g id="edge32" class="edge">
<title>lin3&#45;&gt;batched_reduce_max_pyl</title>
<path fill="none" stroke="black" d="M882.72,-1794.05C888.63,-1784.88 895.67,-1773.93 901.83,-1764.37"/>
<polygon fill="black" stroke="black" points="904.77,-1766.26 907.24,-1755.96 898.89,-1762.47 904.77,-1766.26"/>
</g>
<!-- maxes -->
<g id="node17" class="node">
<title>maxes</title>
<polygon fill="lightgrey" stroke="black" points="854.62,-1494.5 854.62,-1535.5 953.12,-1535.5 953.12,-1494.5 854.62,-1494.5"/>
<text text-anchor="middle" x="903.88" y="-1518.2" font-family="Times,serif" font-size="14.00">maxes</text>
<text text-anchor="middle" x="903.88" y="-1501.7" font-family="Times,serif" font-size="14.00">shape=(20, 10)</text>
</g>
<!-- maxes&#45;&gt;sub_su -->
<g id="edge16" class="edge">
<title>maxes&#45;&gt;sub_su</title>
<path fill="none" stroke="black" d="M892.13,-1494.05C886.72,-1484.88 880.27,-1473.93 874.64,-1464.37"/>
<polygon fill="black" stroke="black" points="877.8,-1462.83 869.71,-1455.99 871.77,-1466.38 877.8,-1462.83"/>
</g>
<!-- repeat_denom_broadcasted -->
<g id="node18" class="node">
<title>repeat_denom_broadcasted</title>
<path fill="deepskyblue" stroke="black" d="M904.8,-853.38C904.8,-853.38 883.75,-844.62 883.75,-844.62 878.21,-842.31 878.21,-837.69 883.75,-835.38 883.75,-835.38 904.8,-826.62 904.8,-826.62 910.34,-824.31 921.41,-824.31 926.95,-826.62 926.95,-826.62 948,-835.38 948,-835.38 953.54,-837.69 953.54,-842.31 948,-844.62 948,-844.62 926.95,-853.38 926.95,-853.38 921.41,-855.69 910.34,-855.69 904.8,-853.38"/>
<text text-anchor="middle" x="915.88" y="-834.95" font-family="Times,serif" font-size="14.00">repeat</text>
</g>
<!-- repeat_denom_broadcasted&#45;&gt;denom_broadcasted -->
<g id="edge17" class="edge">
<title>repeat_denom_broadcasted&#45;&gt;denom_broadcasted</title>
<path fill="none" stroke="black" d="M915.88,-822.07C915.88,-814.66 915.88,-805.71 915.88,-797.17"/>
<polygon fill="black" stroke="black" points="919.38,-797.46 915.88,-787.46 912.38,-797.46 919.38,-797.46"/>
</g>
<!-- denom -->
<g id="node19" class="node">
<title>denom</title>
<polygon fill="lightgrey" stroke="black" points="871,-894.5 871,-935.5 962.75,-935.5 962.75,-894.5 871,-894.5"/>
<text text-anchor="middle" x="916.88" y="-918.2" font-family="Times,serif" font-size="14.00">denom</text>
<text text-anchor="middle" x="916.88" y="-901.7" font-family="Times,serif" font-size="14.00">shape=(20, 1)</text>
</g>
<!-- denom&#45;&gt;repeat_denom_broadcasted -->
<g id="edge18" class="edge">
<title>denom&#45;&gt;repeat_denom_broadcasted</title>
<path fill="none" stroke="black" d="M916.6,-894.05C916.5,-886.45 916.38,-877.63 916.26,-869.4"/>
<polygon fill="black" stroke="black" points="919.76,-869.42 916.13,-859.47 912.77,-869.51 919.76,-869.42"/>
</g>
<!-- add_lin3 -->
<g id="node20" class="node">
<title>add_lin3</title>
<path fill="#caff70" stroke="black" d="M858.8,-1903.38C858.8,-1903.38 837.75,-1894.62 837.75,-1894.62 832.21,-1892.31 832.21,-1887.69 837.75,-1885.38 837.75,-1885.38 858.8,-1876.62 858.8,-1876.62 864.34,-1874.31 875.41,-1874.31 880.95,-1876.62 880.95,-1876.62 902,-1885.38 902,-1885.38 907.54,-1887.69 907.54,-1892.31 902,-1894.62 902,-1894.62 880.95,-1903.38 880.95,-1903.38 875.41,-1905.69 864.34,-1905.69 858.8,-1903.38"/>
<text text-anchor="middle" x="869.88" y="-1884.95" font-family="Times,serif" font-size="14.00">add</text>
</g>
<!-- add_lin3&#45;&gt;lin3 -->
<g id="edge19" class="edge">
<title>add_lin3&#45;&gt;lin3</title>
<path fill="none" stroke="black" d="M869.88,-1872.07C869.88,-1864.66 869.88,-1855.71 869.88,-1847.17"/>
<polygon fill="black" stroke="black" points="873.38,-1847.46 869.88,-1837.46 866.38,-1847.46 873.38,-1847.46"/>
</g>
<!-- mm3 -->
<g id="node21" class="node">
<title>mm3</title>
<polygon fill="lightgrey" stroke="black" points="762.62,-1944.5 762.62,-1985.5 861.12,-1985.5 861.12,-1944.5 762.62,-1944.5"/>
<text text-anchor="middle" x="811.88" y="-1968.2" font-family="Times,serif" font-size="14.00">mm3</text>
<text text-anchor="middle" x="811.88" y="-1951.7" font-family="Times,serif" font-size="14.00">shape=(20, 10)</text>
</g>
<!-- mm3&#45;&gt;add_lin3 -->
<g id="edge20" class="edge">
<title>mm3&#45;&gt;add_lin3</title>
<path fill="none" stroke="black" d="M827.72,-1944.05C835.45,-1934.33 844.76,-1922.61 852.66,-1912.67"/>
<polygon fill="black" stroke="black" points="855.28,-1914.99 858.76,-1904.98 849.8,-1910.64 855.28,-1914.99"/>
</g>
<!-- irr -->
<g id="node22" class="node">
<title>irr</title>
<polygon fill="lightgrey" stroke="black" points="879.62,-1944.5 879.62,-1985.5 978.12,-1985.5 978.12,-1944.5 879.62,-1944.5"/>
<text text-anchor="middle" x="928.88" y="-1968.2" font-family="Times,serif" font-size="14.00">irr</text>
<text text-anchor="middle" x="928.88" y="-1951.7" font-family="Times,serif" font-size="14.00">shape=(20, 10)</text>
</g>
<!-- irr&#45;&gt;add_lin3 -->
<g id="edge21" class="edge">
<title>irr&#45;&gt;add_lin3</title>
<path fill="none" stroke="black" d="M912.75,-1944.05C904.89,-1934.33 895.43,-1922.61 887.39,-1912.67"/>
<polygon fill="black" stroke="black" points="890.18,-1910.55 881.17,-1904.98 884.73,-1914.95 890.18,-1910.55"/>
</g>
<!-- repeat_maxes -->
<g id="node23" class="node">
<title>repeat_maxes</title>
<path fill="deepskyblue" stroke="black" d="M894.8,-1603.38C894.8,-1603.38 873.75,-1594.62 873.75,-1594.62 868.21,-1592.31 868.21,-1587.69 873.75,-1585.38 873.75,-1585.38 894.8,-1576.62 894.8,-1576.62 900.34,-1574.31 911.41,-1574.31 916.95,-1576.62 916.95,-1576.62 938,-1585.38 938,-1585.38 943.54,-1587.69 943.54,-1592.31 938,-1594.62 938,-1594.62 916.95,-1603.38 916.95,-1603.38 911.41,-1605.69 900.34,-1605.69 894.8,-1603.38"/>
<text text-anchor="middle" x="905.88" y="-1584.95" font-family="Times,serif" font-size="14.00">repeat</text>
</g>
<!-- repeat_maxes&#45;&gt;maxes -->
<g id="edge22" class="edge">
<title>repeat_maxes&#45;&gt;maxes</title>
<path fill="none" stroke="black" d="M905.41,-1572.07C905.21,-1564.66 904.96,-1555.71 904.73,-1547.17"/>
<polygon fill="black" stroke="black" points="908.24,-1547.36 904.46,-1537.46 901.24,-1547.55 908.24,-1547.36"/>
</g>
<!-- pyl -->
<g id="node24" class="node">
<title>pyl</title>
<polygon fill="lightgrey" stroke="black" points="868,-1644.5 868,-1685.5 959.75,-1685.5 959.75,-1644.5 868,-1644.5"/>
<text text-anchor="middle" x="913.88" y="-1668.2" font-family="Times,serif" font-size="14.00">pyl</text>
<text text-anchor="middle" x="913.88" y="-1651.7" font-family="Times,serif" font-size="14.00">shape=(20, 1)</text>
</g>
<!-- pyl&#45;&gt;repeat_maxes -->
<g id="edge23" class="edge">
<title>pyl&#45;&gt;repeat_maxes</title>
<path fill="none" stroke="black" d="M911.69,-1644.05C910.83,-1636.25 909.84,-1627.16 908.91,-1618.74"/>
<polygon fill="black" stroke="black" points="912.41,-1618.54 907.85,-1608.98 905.46,-1619.3 912.41,-1618.54"/>
</g>
<!-- log_denom -->
<g id="node25" class="node">
<title>log_denom</title>
<path fill="cornsilk" stroke="black" d="M905.8,-1003.38C905.8,-1003.38 884.75,-994.62 884.75,-994.62 879.21,-992.31 879.21,-987.69 884.75,-985.38 884.75,-985.38 905.8,-976.62 905.8,-976.62 911.34,-974.31 922.41,-974.31 927.95,-976.62 927.95,-976.62 949,-985.38 949,-985.38 954.54,-987.69 954.54,-992.31 949,-994.62 949,-994.62 927.95,-1003.38 927.95,-1003.38 922.41,-1005.69 911.34,-1005.69 905.8,-1003.38"/>
<text text-anchor="middle" x="916.88" y="-984.95" font-family="Times,serif" font-size="14.00">log</text>
</g>
<!-- log_denom&#45;&gt;denom -->
<g id="edge24" class="edge">
<title>log_denom&#45;&gt;denom</title>
<path fill="none" stroke="black" d="M916.88,-972.07C916.88,-964.66 916.88,-955.71 916.88,-947.17"/>
<polygon fill="black" stroke="black" points="920.38,-947.46 916.88,-937.46 913.38,-947.46 920.38,-947.46"/>
</g>
<!-- re -->
<g id="node26" class="node">
<title>re</title>
<polygon fill="lightgrey" stroke="black" points="872,-1044.5 872,-1085.5 963.75,-1085.5 963.75,-1044.5 872,-1044.5"/>
<text text-anchor="middle" x="917.88" y="-1068.2" font-family="Times,serif" font-size="14.00">re</text>
<text text-anchor="middle" x="917.88" y="-1051.7" font-family="Times,serif" font-size="14.00">shape=(20, 1)</text>
</g>
<!-- re&#45;&gt;log_denom -->
<g id="edge25" class="edge">
<title>re&#45;&gt;log_denom</title>
<path fill="none" stroke="black" d="M917.6,-1044.05C917.5,-1036.45 917.38,-1027.63 917.26,-1019.4"/>
<polygon fill="black" stroke="black" points="920.76,-1019.42 917.13,-1009.47 913.77,-1019.51 920.76,-1019.42"/>
</g>
<!-- matmul_mm3 -->
<g id="node27" class="node">
<title>matmul_mm3</title>
<path fill="#ffbbff" stroke="black" d="M800.8,-2053.38C800.8,-2053.38 779.75,-2044.62 779.75,-2044.62 774.21,-2042.31 774.21,-2037.69 779.75,-2035.38 779.75,-2035.38 800.8,-2026.62 800.8,-2026.62 806.34,-2024.31 817.41,-2024.31 822.95,-2026.62 822.95,-2026.62 844,-2035.38 844,-2035.38 849.54,-2037.69 849.54,-2042.31 844,-2044.62 844,-2044.62 822.95,-2053.38 822.95,-2053.38 817.41,-2055.69 806.34,-2055.69 800.8,-2053.38"/>
<text text-anchor="middle" x="811.88" y="-2034.95" font-family="Times,serif" font-size="14.00">matmul</text>
</g>
<!-- matmul_mm3&#45;&gt;mm3 -->
<g id="edge26" class="edge">
<title>matmul_mm3&#45;&gt;mm3</title>
<path fill="none" stroke="black" d="M811.88,-2022.07C811.88,-2014.66 811.88,-2005.71 811.88,-1997.17"/>
<polygon fill="black" stroke="black" points="815.38,-1997.46 811.88,-1987.46 808.38,-1997.46 815.38,-1997.46"/>
</g>
<!-- relu4 -->
<g id="node28" class="node">
<title>relu4</title>
<polygon fill="lightgrey" stroke="black" points="647.62,-2094.5 647.62,-2135.5 746.12,-2135.5 746.12,-2094.5 647.62,-2094.5"/>
<text text-anchor="middle" x="696.88" y="-2118.2" font-family="Times,serif" font-size="14.00">relu4</text>
<text text-anchor="middle" x="696.88" y="-2101.7" font-family="Times,serif" font-size="14.00">shape=(20, 32)</text>
</g>
<!-- relu4&#45;&gt;matmul_mm3 -->
<g id="edge27" class="edge">
<title>relu4&#45;&gt;matmul_mm3</title>
<path fill="none" stroke="black" d="M728.3,-2094.05C746.42,-2082.55 768.93,-2068.26 786.02,-2057.41"/>
<polygon fill="black" stroke="black" points="787.54,-2060.59 794.11,-2052.28 783.79,-2054.68 787.54,-2060.59"/>
</g>
<!-- w3 -->
<g id="node29" class="node">
<title>w3</title>
<polygon fill="lightgrey" stroke="black" points="764.62,-2094.5 764.62,-2135.5 863.12,-2135.5 863.12,-2094.5 764.62,-2094.5"/>
<text text-anchor="middle" x="813.88" y="-2118.2" font-family="Times,serif" font-size="14.00">w3</text>
<text text-anchor="middle" x="813.88" y="-2101.7" font-family="Times,serif" font-size="14.00">shape=(32, 10)</text>
</g>
<!-- w3&#45;&gt;matmul_mm3 -->
<g id="edge28" class="edge">
<title>w3&#45;&gt;matmul_mm3</title>
<path fill="none" stroke="black" d="M813.33,-2094.05C813.12,-2086.45 812.88,-2077.63 812.65,-2069.4"/>
<polygon fill="black" stroke="black" points="816.15,-2069.37 812.38,-2059.47 809.16,-2069.56 816.15,-2069.37"/>
</g>
<!-- repeat_irr -->
<g id="node30" class="node">
<title>repeat_irr</title>
<path fill="deepskyblue" stroke="black" d="M917.8,-2053.38C917.8,-2053.38 896.75,-2044.62 896.75,-2044.62 891.21,-2042.31 891.21,-2037.69 896.75,-2035.38 896.75,-2035.38 917.8,-2026.62 917.8,-2026.62 923.34,-2024.31 934.41,-2024.31 939.95,-2026.62 939.95,-2026.62 961,-2035.38 961,-2035.38 966.54,-2037.69 966.54,-2042.31 961,-2044.62 961,-2044.62 939.95,-2053.38 939.95,-2053.38 934.41,-2055.69 923.34,-2055.69 917.8,-2053.38"/>
<text text-anchor="middle" x="928.88" y="-2034.95" font-family="Times,serif" font-size="14.00">repeat</text>
</g>
<!-- repeat_irr&#45;&gt;irr -->
<g id="edge29" class="edge">
<title>repeat_irr&#45;&gt;irr</title>
<path fill="none" stroke="black" d="M928.88,-2022.07C928.88,-2014.66 928.88,-2005.71 928.88,-1997.17"/>
<polygon fill="black" stroke="black" points="932.38,-1997.46 928.88,-1987.46 925.38,-1997.46 932.38,-1997.46"/>
</g>
<!-- b3 -->
<g id="node31" class="node">
<title>b3</title>
<polygon fill="lightgrey" stroke="black" points="883,-2094.5 883,-2135.5 974.75,-2135.5 974.75,-2094.5 883,-2094.5"/>
<text text-anchor="middle" x="928.88" y="-2118.2" font-family="Times,serif" font-size="14.00">b3</text>
<text text-anchor="middle" x="928.88" y="-2101.7" font-family="Times,serif" font-size="14.00">shape=(1, 10)</text>
</g>
<!-- b3&#45;&gt;repeat_irr -->
<g id="edge30" class="edge">
<title>b3&#45;&gt;repeat_irr</title>
<path fill="none" stroke="black" d="M928.88,-2094.05C928.88,-2086.45 928.88,-2077.63 928.88,-2069.4"/>
<polygon fill="black" stroke="black" points="932.38,-2069.47 928.88,-2059.47 925.38,-2069.47 932.38,-2069.47"/>
</g>
<!-- batched_reduce_max_pyl&#45;&gt;pyl -->
<g id="edge31" class="edge">
<title>batched_reduce_max_pyl&#45;&gt;pyl</title>
<path fill="none" stroke="black" d="M916.18,-1722.07C915.87,-1714.66 915.51,-1705.71 915.16,-1697.17"/>
<polygon fill="black" stroke="black" points="918.66,-1697.31 914.76,-1687.46 911.67,-1697.6 918.66,-1697.31"/>
</g>
<!-- batched_reduce_sum_re -->
<g id="node33" class="node">
<title>batched_reduce_sum_re</title>
<path fill="#ffa54f" stroke="black" d="M907.8,-1153.38C907.8,-1153.38 886.75,-1144.62 886.75,-1144.62 881.21,-1142.31 881.21,-1137.69 886.75,-1135.38 886.75,-1135.38 907.8,-1126.62 907.8,-1126.62 913.34,-1124.31 924.41,-1124.31 929.95,-1126.62 929.95,-1126.62 951,-1135.38 951,-1135.38 956.54,-1137.69 956.54,-1142.31 951,-1144.62 951,-1144.62 929.95,-1153.38 929.95,-1153.38 924.41,-1155.69 913.34,-1155.69 907.8,-1153.38"/>
<text text-anchor="middle" x="918.88" y="-1134.95" font-family="Times,serif" font-size="14.00">batched_reduce_sum</text>
</g>
<!-- batched_reduce_sum_re&#45;&gt;re -->
<g id="edge33" class="edge">
<title>batched_reduce_sum_re&#45;&gt;re</title>
<path fill="none" stroke="black" d="M918.64,-1122.07C918.54,-1114.66 918.42,-1105.71 918.3,-1097.17"/>
<polygon fill="black" stroke="black" points="921.81,-1097.41 918.17,-1087.46 914.81,-1097.51 921.81,-1097.41"/>
</g>
<!-- ex -->
<g id="node34" class="node">
<title>ex</title>
<polygon fill="lightgrey" stroke="black" points="861.62,-1194.5 861.62,-1235.5 960.12,-1235.5 960.12,-1194.5 861.62,-1194.5"/>
<text text-anchor="middle" x="910.88" y="-1218.2" font-family="Times,serif" font-size="14.00">ex</text>
<text text-anchor="middle" x="910.88" y="-1201.7" font-family="Times,serif" font-size="14.00">shape=(20, 10)</text>
</g>
<!-- ex&#45;&gt;batched_reduce_sum_re -->
<g id="edge34" class="edge">
<title>ex&#45;&gt;batched_reduce_sum_re</title>
<path fill="none" stroke="black" d="M913.06,-1194.05C913.92,-1186.25 914.91,-1177.16 915.84,-1168.74"/>
<polygon fill="black" stroke="black" points="919.29,-1169.3 916.9,-1158.98 912.34,-1168.54 919.29,-1169.3"/>
</g>
<!-- relu_relu4 -->
<g id="node35" class="node">
<title>relu_relu4</title>
<path fill="yellow" stroke="black" d="M685.8,-2203.38C685.8,-2203.38 664.75,-2194.62 664.75,-2194.62 659.21,-2192.31 659.21,-2187.69 664.75,-2185.38 664.75,-2185.38 685.8,-2176.62 685.8,-2176.62 691.34,-2174.31 702.41,-2174.31 707.95,-2176.62 707.95,-2176.62 729,-2185.38 729,-2185.38 734.54,-2187.69 734.54,-2192.31 729,-2194.62 729,-2194.62 707.95,-2203.38 707.95,-2203.38 702.41,-2205.69 691.34,-2205.69 685.8,-2203.38"/>
<text text-anchor="middle" x="696.88" y="-2184.95" font-family="Times,serif" font-size="14.00">relu</text>
</g>
<!-- relu_relu4&#45;&gt;relu4 -->
<g id="edge35" class="edge">
<title>relu_relu4&#45;&gt;relu4</title>
<path fill="none" stroke="black" d="M696.88,-2172.07C696.88,-2164.66 696.88,-2155.71 696.88,-2147.17"/>
<polygon fill="black" stroke="black" points="700.38,-2147.46 696.88,-2137.46 693.38,-2147.46 700.38,-2147.46"/>
</g>
<!-- lin2 -->
<g id="node36" class="node">
<title>lin2</title>
<polygon fill="lightgrey" stroke="black" points="647.62,-2244.5 647.62,-2285.5 746.12,-2285.5 746.12,-2244.5 647.62,-2244.5"/>
<text text-anchor="middle" x="696.88" y="-2268.2" font-family="Times,serif" font-size="14.00">lin2</text>
<text text-anchor="middle" x="696.88" y="-2251.7" font-family="Times,serif" font-size="14.00">shape=(20, 32)</text>
</g>
<!-- lin2&#45;&gt;relu_relu4 -->
<g id="edge36" class="edge">
<title>lin2&#45;&gt;relu_relu4</title>
<path fill="none" stroke="black" d="M696.88,-2244.05C696.88,-2236.45 696.88,-2227.63 696.88,-2219.4"/>
<polygon fill="black" stroke="black" points="700.38,-2219.47 696.88,-2209.47 693.38,-2219.47 700.38,-2219.47"/>
</g>
<!-- exp_ex&#45;&gt;ex -->
<g id="edge37" class="edge">
<title>exp_ex&#45;&gt;ex</title>
<path fill="none" stroke="black" d="M902.32,-1272.8C903.46,-1265.21 904.86,-1255.89 906.2,-1247.02"/>
<polygon fill="black" stroke="black" points="909.64,-1247.7 907.67,-1237.29 902.72,-1246.66 909.64,-1247.7"/>
</g>
<!-- add_lin2 -->
<g id="node38" class="node">
<title>add_lin2</title>
<path fill="#caff70" stroke="black" d="M685.8,-2353.38C685.8,-2353.38 664.75,-2344.62 664.75,-2344.62 659.21,-2342.31 659.21,-2337.69 664.75,-2335.38 664.75,-2335.38 685.8,-2326.62 685.8,-2326.62 691.34,-2324.31 702.41,-2324.31 707.95,-2326.62 707.95,-2326.62 729,-2335.38 729,-2335.38 734.54,-2337.69 734.54,-2342.31 729,-2344.62 729,-2344.62 707.95,-2353.38 707.95,-2353.38 702.41,-2355.69 691.34,-2355.69 685.8,-2353.38"/>
<text text-anchor="middle" x="696.88" y="-2334.95" font-family="Times,serif" font-size="14.00">add</text>
</g>
<!-- add_lin2&#45;&gt;lin2 -->
<g id="edge39" class="edge">
<title>add_lin2&#45;&gt;lin2</title>
<path fill="none" stroke="black" d="M696.88,-2322.07C696.88,-2314.66 696.88,-2305.71 696.88,-2297.17"/>
<polygon fill="black" stroke="black" points="700.38,-2297.46 696.88,-2287.46 693.38,-2297.46 700.38,-2297.46"/>
</g>
<!-- mm2 -->
<g id="node39" class="node">
<title>mm2</title>
<polygon fill="lightgrey" stroke="black" points="589.62,-2394.5 589.62,-2435.5 688.12,-2435.5 688.12,-2394.5 589.62,-2394.5"/>
<text text-anchor="middle" x="638.88" y="-2418.2" font-family="Times,serif" font-size="14.00">mm2</text>
<text text-anchor="middle" x="638.88" y="-2401.7" font-family="Times,serif" font-size="14.00">shape=(20, 32)</text>
</g>
<!-- mm2&#45;&gt;add_lin2 -->
<g id="edge40" class="edge">
<title>mm2&#45;&gt;add_lin2</title>
<path fill="none" stroke="black" d="M654.72,-2394.05C662.45,-2384.33 671.76,-2372.61 679.66,-2362.67"/>
<polygon fill="black" stroke="black" points="682.28,-2364.99 685.76,-2354.98 676.8,-2360.64 682.28,-2364.99"/>
</g>
<!-- rhc -->
<g id="node40" class="node">
<title>rhc</title>
<polygon fill="lightgrey" stroke="black" points="706.62,-2394.5 706.62,-2435.5 805.12,-2435.5 805.12,-2394.5 706.62,-2394.5"/>
<text text-anchor="middle" x="755.88" y="-2418.2" font-family="Times,serif" font-size="14.00">rhc</text>
<text text-anchor="middle" x="755.88" y="-2401.7" font-family="Times,serif" font-size="14.00">shape=(20, 32)</text>
</g>
<!-- rhc&#45;&gt;add_lin2 -->
<g id="edge41" class="edge">
<title>rhc&#45;&gt;add_lin2</title>
<path fill="none" stroke="black" d="M739.75,-2394.05C731.89,-2384.33 722.43,-2372.61 714.39,-2362.67"/>
<polygon fill="black" stroke="black" points="717.18,-2360.55 708.17,-2354.98 711.73,-2364.95 717.18,-2360.55"/>
</g>
<!-- matmul_mm2 -->
<g id="node41" class="node">
<title>matmul_mm2</title>
<path fill="#ffbbff" stroke="black" d="M627.8,-2503.38C627.8,-2503.38 606.75,-2494.62 606.75,-2494.62 601.21,-2492.31 601.21,-2487.69 606.75,-2485.38 606.75,-2485.38 627.8,-2476.62 627.8,-2476.62 633.34,-2474.31 644.41,-2474.31 649.95,-2476.62 649.95,-2476.62 671,-2485.38 671,-2485.38 676.54,-2487.69 676.54,-2492.31 671,-2494.62 671,-2494.62 649.95,-2503.38 649.95,-2503.38 644.41,-2505.69 633.34,-2505.69 627.8,-2503.38"/>
<text text-anchor="middle" x="638.88" y="-2484.95" font-family="Times,serif" font-size="14.00">matmul</text>
</g>
<!-- matmul_mm2&#45;&gt;mm2 -->
<g id="edge42" class="edge">
<title>matmul_mm2&#45;&gt;mm2</title>
<path fill="none" stroke="black" d="M638.88,-2472.07C638.88,-2464.66 638.88,-2455.71 638.88,-2447.17"/>
<polygon fill="black" stroke="black" points="642.38,-2447.46 638.88,-2437.46 635.38,-2447.46 642.38,-2447.46"/>
</g>
<!-- relu3 -->
<g id="node42" class="node">
<title>relu3</title>
<polygon fill="lightgrey" stroke="black" points="474.62,-2544.5 474.62,-2585.5 573.12,-2585.5 573.12,-2544.5 474.62,-2544.5"/>
<text text-anchor="middle" x="523.88" y="-2568.2" font-family="Times,serif" font-size="14.00">relu3</text>
<text text-anchor="middle" x="523.88" y="-2551.7" font-family="Times,serif" font-size="14.00">shape=(20, 64)</text>
</g>
<!-- relu3&#45;&gt;matmul_mm2 -->
<g id="edge43" class="edge">
<title>relu3&#45;&gt;matmul_mm2</title>
<path fill="none" stroke="black" d="M555.3,-2544.05C573.42,-2532.55 595.93,-2518.26 613.02,-2507.41"/>
<polygon fill="black" stroke="black" points="614.54,-2510.59 621.11,-2502.28 610.79,-2504.68 614.54,-2510.59"/>
</g>
<!-- w2 -->
<g id="node43" class="node">
<title>w2</title>
<polygon fill="lightgrey" stroke="black" points="591.62,-2544.5 591.62,-2585.5 690.12,-2585.5 690.12,-2544.5 591.62,-2544.5"/>
<text text-anchor="middle" x="640.88" y="-2568.2" font-family="Times,serif" font-size="14.00">w2</text>
<text text-anchor="middle" x="640.88" y="-2551.7" font-family="Times,serif" font-size="14.00">shape=(64, 32)</text>
</g>
<!-- w2&#45;&gt;matmul_mm2 -->
<g id="edge44" class="edge">
<title>w2&#45;&gt;matmul_mm2</title>
<path fill="none" stroke="black" d="M640.33,-2544.05C640.12,-2536.45 639.88,-2527.63 639.65,-2519.4"/>
<polygon fill="black" stroke="black" points="643.15,-2519.37 639.38,-2509.47 636.16,-2519.56 643.15,-2519.37"/>
</g>
<!-- repeat_rhc -->
<g id="node44" class="node">
<title>repeat_rhc</title>
<path fill="deepskyblue" stroke="black" d="M744.8,-2503.38C744.8,-2503.38 723.75,-2494.62 723.75,-2494.62 718.21,-2492.31 718.21,-2487.69 723.75,-2485.38 723.75,-2485.38 744.8,-2476.62 744.8,-2476.62 750.34,-2474.31 761.41,-2474.31 766.95,-2476.62 766.95,-2476.62 788,-2485.38 788,-2485.38 793.54,-2487.69 793.54,-2492.31 788,-2494.62 788,-2494.62 766.95,-2503.38 766.95,-2503.38 761.41,-2505.69 750.34,-2505.69 744.8,-2503.38"/>
<text text-anchor="middle" x="755.88" y="-2484.95" font-family="Times,serif" font-size="14.00">repeat</text>
</g>
<!-- repeat_rhc&#45;&gt;rhc -->
<g id="edge45" class="edge">
<title>repeat_rhc&#45;&gt;rhc</title>
<path fill="none" stroke="black" d="M755.88,-2472.07C755.88,-2464.66 755.88,-2455.71 755.88,-2447.17"/>
<polygon fill="black" stroke="black" points="759.38,-2447.46 755.88,-2437.46 752.38,-2447.46 759.38,-2447.46"/>
</g>
<!-- b2 -->
<g id="node45" class="node">
<title>b2</title>
<polygon fill="lightgrey" stroke="black" points="710,-2544.5 710,-2585.5 801.75,-2585.5 801.75,-2544.5 710,-2544.5"/>
<text text-anchor="middle" x="755.88" y="-2568.2" font-family="Times,serif" font-size="14.00">b2</text>
<text text-anchor="middle" x="755.88" y="-2551.7" font-family="Times,serif" font-size="14.00">shape=(1, 32)</text>
</g>
<!-- b2&#45;&gt;repeat_rhc -->
<g id="edge46" class="edge">
<title>b2&#45;&gt;repeat_rhc</title>
<path fill="none" stroke="black" d="M755.88,-2544.05C755.88,-2536.45 755.88,-2527.63 755.88,-2519.4"/>
<polygon fill="black" stroke="black" points="759.38,-2519.47 755.88,-2509.47 752.38,-2519.47 759.38,-2519.47"/>
</g>
<!-- relu_relu3 -->
<g id="node46" class="node">
<title>relu_relu3</title>
<path fill="yellow" stroke="black" d="M512.8,-2653.38C512.8,-2653.38 491.75,-2644.62 491.75,-2644.62 486.21,-2642.31 486.21,-2637.69 491.75,-2635.38 491.75,-2635.38 512.8,-2626.62 512.8,-2626.62 518.34,-2624.31 529.41,-2624.31 534.95,-2626.62 534.95,-2626.62 556,-2635.38 556,-2635.38 561.54,-2637.69 561.54,-2642.31 556,-2644.62 556,-2644.62 534.95,-2653.38 534.95,-2653.38 529.41,-2655.69 518.34,-2655.69 512.8,-2653.38"/>
<text text-anchor="middle" x="523.88" y="-2634.95" font-family="Times,serif" font-size="14.00">relu</text>
</g>
<!-- relu_relu3&#45;&gt;relu3 -->
<g id="edge47" class="edge">
<title>relu_relu3&#45;&gt;relu3</title>
<path fill="none" stroke="black" d="M523.88,-2622.07C523.88,-2614.66 523.88,-2605.71 523.88,-2597.17"/>
<polygon fill="black" stroke="black" points="527.38,-2597.46 523.88,-2587.46 520.38,-2597.46 527.38,-2597.46"/>
</g>
<!-- lin1 -->
<g id="node47" class="node">
<title>lin1</title>
<polygon fill="lightgrey" stroke="black" points="474.62,-2694.5 474.62,-2735.5 573.12,-2735.5 573.12,-2694.5 474.62,-2694.5"/>
<text text-anchor="middle" x="523.88" y="-2718.2" font-family="Times,serif" font-size="14.00">lin1</text>
<text text-anchor="middle" x="523.88" y="-2701.7" font-family="Times,serif" font-size="14.00">shape=(20, 64)</text>
</g>
<!-- lin1&#45;&gt;relu_relu3 -->
<g id="edge48" class="edge">
<title>lin1&#45;&gt;relu_relu3</title>
<path fill="none" stroke="black" d="M523.88,-2694.05C523.88,-2686.45 523.88,-2677.63 523.88,-2669.4"/>
<polygon fill="black" stroke="black" points="527.38,-2669.47 523.88,-2659.47 520.38,-2669.47 527.38,-2669.47"/>
</g>
<!-- add_lin1 -->
<g id="node48" class="node">
<title>add_lin1</title>
<path fill="#caff70" stroke="black" d="M512.8,-2803.38C512.8,-2803.38 491.75,-2794.62 491.75,-2794.62 486.21,-2792.31 486.21,-2787.69 491.75,-2785.38 491.75,-2785.38 512.8,-2776.62 512.8,-2776.62 518.34,-2774.31 529.41,-2774.31 534.95,-2776.62 534.95,-2776.62 556,-2785.38 556,-2785.38 561.54,-2787.69 561.54,-2792.31 556,-2794.62 556,-2794.62 534.95,-2803.38 534.95,-2803.38 529.41,-2805.69 518.34,-2805.69 512.8,-2803.38"/>
<text text-anchor="middle" x="523.88" y="-2784.95" font-family="Times,serif" font-size="14.00">add</text>
</g>
<!-- add_lin1&#45;&gt;lin1 -->
<g id="edge49" class="edge">
<title>add_lin1&#45;&gt;lin1</title>
<path fill="none" stroke="black" d="M523.88,-2772.07C523.88,-2764.66 523.88,-2755.71 523.88,-2747.17"/>
<polygon fill="black" stroke="black" points="527.38,-2747.46 523.88,-2737.46 520.38,-2747.46 527.38,-2747.46"/>
</g>
<!-- mm1 -->
<g id="node49" class="node">
<title>mm1</title>
<polygon fill="lightgrey" stroke="black" points="416.62,-2844.5 416.62,-2885.5 515.12,-2885.5 515.12,-2844.5 416.62,-2844.5"/>
<text text-anchor="middle" x="465.88" y="-2868.2" font-family="Times,serif" font-size="14.00">mm1</text>
<text text-anchor="middle" x="465.88" y="-2851.7" font-family="Times,serif" font-size="14.00">shape=(20, 64)</text>
</g>
<!-- mm1&#45;&gt;add_lin1 -->
<g id="edge50" class="edge">
<title>mm1&#45;&gt;add_lin1</title>
<path fill="none" stroke="black" d="M481.72,-2844.05C489.45,-2834.33 498.76,-2822.61 506.66,-2812.67"/>
<polygon fill="black" stroke="black" points="509.28,-2814.99 512.76,-2804.98 503.8,-2810.64 509.28,-2814.99"/>
</g>
<!-- osf -->
<g id="node50" class="node">
<title>osf</title>
<polygon fill="lightgrey" stroke="black" points="533.62,-2844.5 533.62,-2885.5 632.12,-2885.5 632.12,-2844.5 533.62,-2844.5"/>
<text text-anchor="middle" x="582.88" y="-2868.2" font-family="Times,serif" font-size="14.00">osf</text>
<text text-anchor="middle" x="582.88" y="-2851.7" font-family="Times,serif" font-size="14.00">shape=(20, 64)</text>
</g>
<!-- osf&#45;&gt;add_lin1 -->
<g id="edge51" class="edge">
<title>osf&#45;&gt;add_lin1</title>
<path fill="none" stroke="black" d="M566.75,-2844.05C558.89,-2834.33 549.43,-2822.61 541.39,-2812.67"/>
<polygon fill="black" stroke="black" points="544.18,-2810.55 535.17,-2804.98 538.73,-2814.95 544.18,-2810.55"/>
</g>
<!-- matmul_mm1 -->
<g id="node51" class="node">
<title>matmul_mm1</title>
<path fill="#ffbbff" stroke="black" d="M454.8,-2953.38C454.8,-2953.38 433.75,-2944.62 433.75,-2944.62 428.21,-2942.31 428.21,-2937.69 433.75,-2935.38 433.75,-2935.38 454.8,-2926.62 454.8,-2926.62 460.34,-2924.31 471.41,-2924.31 476.95,-2926.62 476.95,-2926.62 498,-2935.38 498,-2935.38 503.54,-2937.69 503.54,-2942.31 498,-2944.62 498,-2944.62 476.95,-2953.38 476.95,-2953.38 471.41,-2955.69 460.34,-2955.69 454.8,-2953.38"/>
<text text-anchor="middle" x="465.88" y="-2934.95" font-family="Times,serif" font-size="14.00">matmul</text>
</g>
<!-- matmul_mm1&#45;&gt;mm1 -->
<g id="edge52" class="edge">
<title>matmul_mm1&#45;&gt;mm1</title>
<path fill="none" stroke="black" d="M465.88,-2922.07C465.88,-2914.66 465.88,-2905.71 465.88,-2897.17"/>
<polygon fill="black" stroke="black" points="469.38,-2897.46 465.88,-2887.46 462.38,-2897.46 469.38,-2897.46"/>
</g>
<!-- flat -->
<g id="node52" class="node">
<title>flat</title>
<polygon fill="lightgrey" stroke="black" points="301.62,-2994.5 301.62,-3035.5 400.12,-3035.5 400.12,-2994.5 301.62,-2994.5"/>
<text text-anchor="middle" x="350.88" y="-3018.2" font-family="Times,serif" font-size="14.00">flat</text>
<text text-anchor="middle" x="350.88" y="-3001.7" font-family="Times,serif" font-size="14.00">shape=(20, 96)</text>
</g>
<!-- flat&#45;&gt;matmul_mm1 -->
<g id="edge53" class="edge">
<title>flat&#45;&gt;matmul_mm1</title>
<path fill="none" stroke="black" d="M382.3,-2994.05C400.42,-2982.55 422.93,-2968.26 440.02,-2957.41"/>
<polygon fill="black" stroke="black" points="441.54,-2960.59 448.11,-2952.28 437.79,-2954.68 441.54,-2960.59"/>
</g>
<!-- w1 -->
<g id="node53" class="node">
<title>w1</title>
<polygon fill="lightgrey" stroke="black" points="418.62,-2994.5 418.62,-3035.5 517.12,-3035.5 517.12,-2994.5 418.62,-2994.5"/>
<text text-anchor="middle" x="467.88" y="-3018.2" font-family="Times,serif" font-size="14.00">w1</text>
<text text-anchor="middle" x="467.88" y="-3001.7" font-family="Times,serif" font-size="14.00">shape=(96, 64)</text>
</g>
<!-- w1&#45;&gt;matmul_mm1 -->
<g id="edge54" class="edge">
<title>w1&#45;&gt;matmul_mm1</title>
<path fill="none" stroke="black" d="M467.33,-2994.05C467.12,-2986.45 466.88,-2977.63 466.65,-2969.4"/>
<polygon fill="black" stroke="black" points="470.15,-2969.37 466.38,-2959.47 463.16,-2969.56 470.15,-2969.37"/>
</g>
<!-- repeat_osf -->
<g id="node54" class="node">
<title>repeat_osf</title>
<path fill="deepskyblue" stroke="black" d="M571.8,-2953.38C571.8,-2953.38 550.75,-2944.62 550.75,-2944.62 545.21,-2942.31 545.21,-2937.69 550.75,-2935.38 550.75,-2935.38 571.8,-2926.62 571.8,-2926.62 577.34,-2924.31 588.41,-2924.31 593.95,-2926.62 593.95,-2926.62 615,-2935.38 615,-2935.38 620.54,-2937.69 620.54,-2942.31 615,-2944.62 615,-2944.62 593.95,-2953.38 593.95,-2953.38 588.41,-2955.69 577.34,-2955.69 571.8,-2953.38"/>
<text text-anchor="middle" x="582.88" y="-2934.95" font-family="Times,serif" font-size="14.00">repeat</text>
</g>
<!-- repeat_osf&#45;&gt;osf -->
<g id="edge55" class="edge">
<title>repeat_osf&#45;&gt;osf</title>
<path fill="none" stroke="black" d="M582.88,-2922.07C582.88,-2914.66 582.88,-2905.71 582.88,-2897.17"/>
<polygon fill="black" stroke="black" points="586.38,-2897.46 582.88,-2887.46 579.38,-2897.46 586.38,-2897.46"/>
</g>
<!-- b1 -->
<g id="node55" class="node">
<title>b1</title>
<polygon fill="lightgrey" stroke="black" points="537,-2994.5 537,-3035.5 628.75,-3035.5 628.75,-2994.5 537,-2994.5"/>
<text text-anchor="middle" x="582.88" y="-3018.2" font-family="Times,serif" font-size="14.00">b1</text>
<text text-anchor="middle" x="582.88" y="-3001.7" font-family="Times,serif" font-size="14.00">shape=(1, 64)</text>
</g>
<!-- b1&#45;&gt;repeat_osf -->
<g id="edge56" class="edge">
<title>b1&#45;&gt;repeat_osf</title>
<path fill="none" stroke="black" d="M582.88,-2994.05C582.88,-2986.45 582.88,-2977.63 582.88,-2969.4"/>
<polygon fill="black" stroke="black" points="586.38,-2969.47 582.88,-2959.47 579.38,-2969.47 586.38,-2969.47"/>
</g>
<!-- batched_flatten_flat -->
<g id="node56" class="node">
<title>batched_flatten_flat</title>
<path fill="beige" stroke="black" d="M339.8,-3103.38C339.8,-3103.38 318.75,-3094.62 318.75,-3094.62 313.21,-3092.31 313.21,-3087.69 318.75,-3085.38 318.75,-3085.38 339.8,-3076.62 339.8,-3076.62 345.34,-3074.31 356.41,-3074.31 361.95,-3076.62 361.95,-3076.62 383,-3085.38 383,-3085.38 388.54,-3087.69 388.54,-3092.31 383,-3094.62 383,-3094.62 361.95,-3103.38 361.95,-3103.38 356.41,-3105.69 345.34,-3105.69 339.8,-3103.38"/>
<text text-anchor="middle" x="350.88" y="-3084.95" font-family="Times,serif" font-size="14.00">batched_flatten</text>
</g>
<!-- batched_flatten_flat&#45;&gt;flat -->
<g id="edge57" class="edge">
<title>batched_flatten_flat&#45;&gt;flat</title>
<path fill="none" stroke="black" d="M350.88,-3072.07C350.88,-3064.66 350.88,-3055.71 350.88,-3047.17"/>
<polygon fill="black" stroke="black" points="354.38,-3047.46 350.88,-3037.46 347.38,-3047.46 354.38,-3047.46"/>
</g>
<!-- mp2 -->
<g id="node57" class="node">
<title>mp2</title>
<polygon fill="lightgrey" stroke="black" points="290.75,-3144.5 290.75,-3185.5 411,-3185.5 411,-3144.5 290.75,-3144.5"/>
<text text-anchor="middle" x="350.88" y="-3168.2" font-family="Times,serif" font-size="14.00">mp2</text>
<text text-anchor="middle" x="350.88" y="-3151.7" font-family="Times,serif" font-size="14.00">shape=(20, 6, 4, 4)</text>
</g>
<!-- mp2&#45;&gt;batched_flatten_flat -->
<g id="edge58" class="edge">
<title>mp2&#45;&gt;batched_flatten_flat</title>
<path fill="none" stroke="black" d="M350.88,-3144.05C350.88,-3136.45 350.88,-3127.63 350.88,-3119.4"/>
<polygon fill="black" stroke="black" points="354.38,-3119.47 350.88,-3109.47 347.38,-3119.47 354.38,-3119.47"/>
</g>
<!-- batched_maxpool_mp2 -->
<g id="node58" class="node">
<title>batched_maxpool_mp2</title>
<path fill="#9bcd9b" stroke="black" d="M339.8,-3253.38C339.8,-3253.38 318.75,-3244.62 318.75,-3244.62 313.21,-3242.31 313.21,-3237.69 318.75,-3235.38 318.75,-3235.38 339.8,-3226.62 339.8,-3226.62 345.34,-3224.31 356.41,-3224.31 361.95,-3226.62 361.95,-3226.62 383,-3235.38 383,-3235.38 388.54,-3237.69 388.54,-3242.31 383,-3244.62 383,-3244.62 361.95,-3253.38 361.95,-3253.38 356.41,-3255.69 345.34,-3255.69 339.8,-3253.38"/>
<text text-anchor="middle" x="350.88" y="-3234.95" font-family="Times,serif" font-size="14.00">batched_maxpool</text>
</g>
<!-- batched_maxpool_mp2&#45;&gt;mp2 -->
<g id="edge59" class="edge">
<title>batched_maxpool_mp2&#45;&gt;mp2</title>
<path fill="none" stroke="black" d="M350.88,-3222.07C350.88,-3214.66 350.88,-3205.71 350.88,-3197.17"/>
<polygon fill="black" stroke="black" points="354.38,-3197.46 350.88,-3187.46 347.38,-3197.46 354.38,-3197.46"/>
</g>
<!-- relu2 -->
<g id="node59" class="node">
<title>relu2</title>
<polygon fill="lightgrey" stroke="black" points="290.75,-3294.5 290.75,-3335.5 411,-3335.5 411,-3294.5 290.75,-3294.5"/>
<text text-anchor="middle" x="350.88" y="-3318.2" font-family="Times,serif" font-size="14.00">relu2</text>
<text text-anchor="middle" x="350.88" y="-3301.7" font-family="Times,serif" font-size="14.00">shape=(20, 6, 8, 8)</text>
</g>
<!-- relu2&#45;&gt;batched_maxpool_mp2 -->
<g id="edge60" class="edge">
<title>relu2&#45;&gt;batched_maxpool_mp2</title>
<path fill="none" stroke="black" d="M350.88,-3294.05C350.88,-3286.45 350.88,-3277.63 350.88,-3269.4"/>
<polygon fill="black" stroke="black" points="354.38,-3269.47 350.88,-3259.47 347.38,-3269.47 354.38,-3269.47"/>
</g>
<!-- relu_relu2 -->
<g id="node60" class="node">
<title>relu_relu2</title>
<path fill="yellow" stroke="black" d="M339.8,-3403.38C339.8,-3403.38 318.75,-3394.62 318.75,-3394.62 313.21,-3392.31 313.21,-3387.69 318.75,-3385.38 318.75,-3385.38 339.8,-3376.62 339.8,-3376.62 345.34,-3374.31 356.41,-3374.31 361.95,-3376.62 361.95,-3376.62 383,-3385.38 383,-3385.38 388.54,-3387.69 388.54,-3392.31 383,-3394.62 383,-3394.62 361.95,-3403.38 361.95,-3403.38 356.41,-3405.69 345.34,-3405.69 339.8,-3403.38"/>
<text text-anchor="middle" x="350.88" y="-3384.95" font-family="Times,serif" font-size="14.00">relu</text>
</g>
<!-- relu_relu2&#45;&gt;relu2 -->
<g id="edge61" class="edge">
<title>relu_relu2&#45;&gt;relu2</title>
<path fill="none" stroke="black" d="M350.88,-3372.07C350.88,-3364.66 350.88,-3355.71 350.88,-3347.17"/>
<polygon fill="black" stroke="black" points="354.38,-3347.46 350.88,-3337.46 347.38,-3347.46 354.38,-3347.46"/>
</g>
<!-- conv2 -->
<g id="node61" class="node">
<title>conv2</title>
<polygon fill="lightgrey" stroke="black" points="290.75,-3444.5 290.75,-3485.5 411,-3485.5 411,-3444.5 290.75,-3444.5"/>
<text text-anchor="middle" x="350.88" y="-3468.2" font-family="Times,serif" font-size="14.00">conv2</text>
<text text-anchor="middle" x="350.88" y="-3451.7" font-family="Times,serif" font-size="14.00">shape=(20, 6, 8, 8)</text>
</g>
<!-- conv2&#45;&gt;relu_relu2 -->
<g id="edge62" class="edge">
<title>conv2&#45;&gt;relu_relu2</title>
<path fill="none" stroke="black" d="M350.88,-3444.05C350.88,-3436.45 350.88,-3427.63 350.88,-3419.4"/>
<polygon fill="black" stroke="black" points="354.38,-3419.47 350.88,-3409.47 347.38,-3419.47 354.38,-3419.47"/>
</g>
<!-- batched_conv_conv2 -->
<g id="node62" class="node">
<title>batched_conv_conv2</title>
<path fill="#cd1076" stroke="black" d="M339.8,-3553.38C339.8,-3553.38 318.75,-3544.62 318.75,-3544.62 313.21,-3542.31 313.21,-3537.69 318.75,-3535.38 318.75,-3535.38 339.8,-3526.62 339.8,-3526.62 345.34,-3524.31 356.41,-3524.31 361.95,-3526.62 361.95,-3526.62 383,-3535.38 383,-3535.38 388.54,-3537.69 388.54,-3542.31 383,-3544.62 383,-3544.62 361.95,-3553.38 361.95,-3553.38 356.41,-3555.69 345.34,-3555.69 339.8,-3553.38"/>
<text text-anchor="middle" x="350.88" y="-3534.95" font-family="Times,serif" font-size="14.00">batched_conv</text>
</g>
<!-- batched_conv_conv2&#45;&gt;conv2 -->
<g id="edge63" class="edge">
<title>batched_conv_conv2&#45;&gt;conv2</title>
<path fill="none" stroke="black" d="M350.88,-3522.07C350.88,-3514.66 350.88,-3505.71 350.88,-3497.17"/>
<polygon fill="black" stroke="black" points="354.38,-3497.46 350.88,-3487.46 347.38,-3497.46 354.38,-3497.46"/>
</g>
<!-- mp1 -->
<g id="node63" class="node">
<title>mp1</title>
<polygon fill="lightgrey" stroke="black" points="142,-3594.5 142,-3635.5 275.75,-3635.5 275.75,-3594.5 142,-3594.5"/>
<text text-anchor="middle" x="208.88" y="-3618.2" font-family="Times,serif" font-size="14.00">mp1</text>
<text text-anchor="middle" x="208.88" y="-3601.7" font-family="Times,serif" font-size="14.00">shape=(20, 6, 13, 13)</text>
</g>
<!-- mp1&#45;&gt;batched_conv_conv2 -->
<g id="edge64" class="edge">
<title>mp1&#45;&gt;batched_conv_conv2</title>
<path fill="none" stroke="black" d="M247.68,-3594.05C271.14,-3581.99 300.55,-3566.87 321.97,-3555.86"/>
<polygon fill="black" stroke="black" points="323.43,-3559.04 330.73,-3551.36 320.23,-3552.82 323.43,-3559.04"/>
</g>
<!-- kernel2 -->
<g id="node64" class="node">
<title>kernel2</title>
<polygon fill="lightgrey" stroke="black" points="294.12,-3594.5 294.12,-3635.5 407.62,-3635.5 407.62,-3594.5 294.12,-3594.5"/>
<text text-anchor="middle" x="350.88" y="-3618.2" font-family="Times,serif" font-size="14.00">kernel2</text>
<text text-anchor="middle" x="350.88" y="-3601.7" font-family="Times,serif" font-size="14.00">shape=(6, 6, 6, 6)</text>
</g>
<!-- kernel2&#45;&gt;batched_conv_conv2 -->
<g id="edge65" class="edge">
<title>kernel2&#45;&gt;batched_conv_conv2</title>
<path fill="none" stroke="black" d="M350.88,-3594.05C350.88,-3586.45 350.88,-3577.63 350.88,-3569.4"/>
<polygon fill="black" stroke="black" points="354.38,-3569.47 350.88,-3559.47 347.38,-3569.47 354.38,-3569.47"/>
</g>
<!-- bias_kernel2 -->
<g id="node65" class="node">
<title>bias_kernel2</title>
<polygon fill="lightgrey" stroke="black" points="425.38,-3594.5 425.38,-3635.5 510.38,-3635.5 510.38,-3594.5 425.38,-3594.5"/>
<text text-anchor="middle" x="467.88" y="-3618.2" font-family="Times,serif" font-size="14.00">bias_kernel2</text>
<text text-anchor="middle" x="467.88" y="-3601.7" font-family="Times,serif" font-size="14.00">shape=(6, 1)</text>
</g>
<!-- bias_kernel2&#45;&gt;batched_conv_conv2 -->
<g id="edge66" class="edge">
<title>bias_kernel2&#45;&gt;batched_conv_conv2</title>
<path fill="none" stroke="black" d="M435.9,-3594.05C417.47,-3582.55 394.57,-3568.26 377.18,-3557.41"/>
<polygon fill="black" stroke="black" points="379.27,-3554.59 368.94,-3552.27 375.57,-3560.53 379.27,-3554.59"/>
</g>
<!-- batched_maxpool_mp1 -->
<g id="node66" class="node">
<title>batched_maxpool_mp1</title>
<path fill="#9bcd9b" stroke="black" d="M197.8,-3703.38C197.8,-3703.38 176.75,-3694.62 176.75,-3694.62 171.21,-3692.31 171.21,-3687.69 176.75,-3685.38 176.75,-3685.38 197.8,-3676.62 197.8,-3676.62 203.34,-3674.31 214.41,-3674.31 219.95,-3676.62 219.95,-3676.62 241,-3685.38 241,-3685.38 246.54,-3687.69 246.54,-3692.31 241,-3694.62 241,-3694.62 219.95,-3703.38 219.95,-3703.38 214.41,-3705.69 203.34,-3705.69 197.8,-3703.38"/>
<text text-anchor="middle" x="208.88" y="-3684.95" font-family="Times,serif" font-size="14.00">batched_maxpool</text>
</g>
<!-- batched_maxpool_mp1&#45;&gt;mp1 -->
<g id="edge67" class="edge">
<title>batched_maxpool_mp1&#45;&gt;mp1</title>
<path fill="none" stroke="black" d="M208.88,-3672.07C208.88,-3664.66 208.88,-3655.71 208.88,-3647.17"/>
<polygon fill="black" stroke="black" points="212.38,-3647.46 208.88,-3637.46 205.38,-3647.46 212.38,-3647.46"/>
</g>
<!-- relu1 -->
<g id="node67" class="node">
<title>relu1</title>
<polygon fill="lightgrey" stroke="black" points="142,-3744.5 142,-3785.5 275.75,-3785.5 275.75,-3744.5 142,-3744.5"/>
<text text-anchor="middle" x="208.88" y="-3768.2" font-family="Times,serif" font-size="14.00">relu1</text>
<text text-anchor="middle" x="208.88" y="-3751.7" font-family="Times,serif" font-size="14.00">shape=(20, 6, 26, 26)</text>
</g>
<!-- relu1&#45;&gt;batched_maxpool_mp1 -->
<g id="edge68" class="edge">
<title>relu1&#45;&gt;batched_maxpool_mp1</title>
<path fill="none" stroke="black" d="M208.88,-3744.05C208.88,-3736.45 208.88,-3727.63 208.88,-3719.4"/>
<polygon fill="black" stroke="black" points="212.38,-3719.47 208.88,-3709.47 205.38,-3719.47 212.38,-3719.47"/>
</g>
<!-- relu_relu1 -->
<g id="node68" class="node">
<title>relu_relu1</title>
<path fill="yellow" stroke="black" d="M197.8,-3853.38C197.8,-3853.38 176.75,-3844.62 176.75,-3844.62 171.21,-3842.31 171.21,-3837.69 176.75,-3835.38 176.75,-3835.38 197.8,-3826.62 197.8,-3826.62 203.34,-3824.31 214.41,-3824.31 219.95,-3826.62 219.95,-3826.62 241,-3835.38 241,-3835.38 246.54,-3837.69 246.54,-3842.31 241,-3844.62 241,-3844.62 219.95,-3853.38 219.95,-3853.38 214.41,-3855.69 203.34,-3855.69 197.8,-3853.38"/>
<text text-anchor="middle" x="208.88" y="-3834.95" font-family="Times,serif" font-size="14.00">relu</text>
</g>
<!-- relu_relu1&#45;&gt;relu1 -->
<g id="edge69" class="edge">
<title>relu_relu1&#45;&gt;relu1</title>
<path fill="none" stroke="black" d="M208.88,-3822.07C208.88,-3814.66 208.88,-3805.71 208.88,-3797.17"/>
<polygon fill="black" stroke="black" points="212.38,-3797.46 208.88,-3787.46 205.38,-3797.46 212.38,-3797.46"/>
</g>
<!-- conv1 -->
<g id="node69" class="node">
<title>conv1</title>
<polygon fill="lightgrey" stroke="black" points="142,-3894.5 142,-3935.5 275.75,-3935.5 275.75,-3894.5 142,-3894.5"/>
<text text-anchor="middle" x="208.88" y="-3918.2" font-family="Times,serif" font-size="14.00">conv1</text>
<text text-anchor="middle" x="208.88" y="-3901.7" font-family="Times,serif" font-size="14.00">shape=(20, 6, 26, 26)</text>
</g>
<!-- conv1&#45;&gt;relu_relu1 -->
<g id="edge70" class="edge">
<title>conv1&#45;&gt;relu_relu1</title>
<path fill="none" stroke="black" d="M208.88,-3894.05C208.88,-3886.45 208.88,-3877.63 208.88,-3869.4"/>
<polygon fill="black" stroke="black" points="212.38,-3869.47 208.88,-3859.47 205.38,-3869.47 212.38,-3869.47"/>
</g>
<!-- batched_conv_conv1 -->
<g id="node70" class="node">
<title>batched_conv_conv1</title>
<path fill="#cd1076" stroke="black" d="M197.8,-4003.38C197.8,-4003.38 176.75,-3994.62 176.75,-3994.62 171.21,-3992.31 171.21,-3987.69 176.75,-3985.38 176.75,-3985.38 197.8,-3976.62 197.8,-3976.62 203.34,-3974.31 214.41,-3974.31 219.95,-3976.62 219.95,-3976.62 241,-3985.38 241,-3985.38 246.54,-3987.69 246.54,-3992.31 241,-3994.62 241,-3994.62 219.95,-4003.38 219.95,-4003.38 214.41,-4005.69 203.34,-4005.69 197.8,-4003.38"/>
<text text-anchor="middle" x="208.88" y="-3984.95" font-family="Times,serif" font-size="14.00">batched_conv</text>
</g>
<!-- batched_conv_conv1&#45;&gt;conv1 -->
<g id="edge71" class="edge">
<title>batched_conv_conv1&#45;&gt;conv1</title>
<path fill="none" stroke="black" d="M208.88,-3972.07C208.88,-3964.66 208.88,-3955.71 208.88,-3947.17"/>
<polygon fill="black" stroke="black" points="212.38,-3947.46 208.88,-3937.46 205.38,-3947.46 212.38,-3947.46"/>
</g>
<!-- input -->
<g id="node71" class="node">
<title>input</title>
<polygon fill="lightgrey" stroke="black" points="0,-4044.5 0,-4085.5 133.75,-4085.5 133.75,-4044.5 0,-4044.5"/>
<text text-anchor="middle" x="66.88" y="-4068.2" font-family="Times,serif" font-size="14.00">input</text>
<text text-anchor="middle" x="66.88" y="-4051.7" font-family="Times,serif" font-size="14.00">shape=(20, 3, 32, 32)</text>
</g>
<!-- input&#45;&gt;batched_conv_conv1 -->
<g id="edge72" class="edge">
<title>input&#45;&gt;batched_conv_conv1</title>
<path fill="none" stroke="black" d="M105.68,-4044.05C129.14,-4031.99 158.55,-4016.87 179.97,-4005.86"/>
<polygon fill="black" stroke="black" points="181.43,-4009.04 188.73,-4001.36 178.23,-4002.82 181.43,-4009.04"/>
</g>
<!-- kernel1 -->
<g id="node72" class="node">
<title>kernel1</title>
<polygon fill="lightgrey" stroke="black" points="152.12,-4044.5 152.12,-4085.5 265.62,-4085.5 265.62,-4044.5 152.12,-4044.5"/>
<text text-anchor="middle" x="208.88" y="-4068.2" font-family="Times,serif" font-size="14.00">kernel1</text>
<text text-anchor="middle" x="208.88" y="-4051.7" font-family="Times,serif" font-size="14.00">shape=(6, 3, 7, 7)</text>
</g>
<!-- kernel1&#45;&gt;batched_conv_conv1 -->
<g id="edge73" class="edge">
<title>kernel1&#45;&gt;batched_conv_conv1</title>
<path fill="none" stroke="black" d="M208.88,-4044.05C208.88,-4036.45 208.88,-4027.63 208.88,-4019.4"/>
<polygon fill="black" stroke="black" points="212.38,-4019.47 208.88,-4009.47 205.38,-4019.47 212.38,-4019.47"/>
</g>
<!-- bias_kernel1 -->
<g id="node73" class="node">
<title>bias_kernel1</title>
<polygon fill="lightgrey" stroke="black" points="283.38,-4044.5 283.38,-4085.5 368.38,-4085.5 368.38,-4044.5 283.38,-4044.5"/>
<text text-anchor="middle" x="325.88" y="-4068.2" font-family="Times,serif" font-size="14.00">bias_kernel1</text>
<text text-anchor="middle" x="325.88" y="-4051.7" font-family="Times,serif" font-size="14.00">shape=(6, 1)</text>
</g>
<!-- bias_kernel1&#45;&gt;batched_conv_conv1 -->
<g id="edge74" class="edge">
<title>bias_kernel1&#45;&gt;batched_conv_conv1</title>
<path fill="none" stroke="black" d="M293.9,-4044.05C275.47,-4032.55 252.57,-4018.26 235.18,-4007.41"/>
<polygon fill="black" stroke="black" points="237.27,-4004.59 226.94,-4002.27 233.57,-4010.53 237.27,-4004.59"/>
</g>
</g>
</svg>
