<?xml version="1.0" encoding="UTF-8" standalone="no"?>
<!DOCTYPE svg PUBLIC "-//W3C//DTD SVG 1.1//EN"
 "http://www.w3.org/Graphics/SVG/1.1/DTD/svg11.dtd">
<!-- Generated by graphviz version 9.0.0 (20230911.1827)
 -->
<!-- Pages: 1 -->
<svg width="259pt" height="914pt"
 viewBox="0.00 0.00 259.38 914.00" xmlns="http://www.w3.org/2000/svg" xmlns:xlink="http://www.w3.org/1999/xlink">
<g id="graph0" class="graph" transform="scale(1 1) rotate(0) translate(4 910)">
<polygon fill="white" stroke="none" points="-4,4 -4,-910 255.38,-910 255.38,4 -4,4"/>
<!-- reduce_sum_vht -->
<g id="node1" class="node">
<title>reduce_sum_vht</title>
<path fill="aquamarine" stroke="black" d="M89.8,-103.38C89.8,-103.38 68.75,-94.62 68.75,-94.62 63.21,-92.31 63.21,-87.69 68.75,-85.38 68.75,-85.38 89.8,-76.62 89.8,-76.62 95.34,-74.31 106.41,-74.31 111.95,-76.62 111.95,-76.62 133,-85.38 133,-85.38 138.54,-87.69 138.54,-92.31 133,-94.62 133,-94.62 111.95,-103.38 111.95,-103.38 106.41,-105.69 95.34,-105.69 89.8,-103.38"/>
<text text-anchor="middle" x="100.88" y="-84.95" font-family="Times,serif" font-size="14.00">reduce_sum</text>
</g>
<!-- vht -->
<g id="node2" class="node">
<title>vht</title>
<ellipse fill="lightgrey" stroke="black" cx="100.88" cy="-18" rx="18" ry="18"/>
<text text-anchor="middle" x="100.88" y="-12.95" font-family="Times,serif" font-size="14.00">vht</text>
</g>
<!-- reduce_sum_vht&#45;&gt;vht -->
<g id="edge1" class="edge">
<title>reduce_sum_vht&#45;&gt;vht</title>
<path fill="none" stroke="black" d="M100.88,-72.05C100.88,-64.57 100.88,-55.58 100.88,-47.14"/>
<polygon fill="black" stroke="black" points="104.38,-47.3 100.88,-37.3 97.38,-47.3 104.38,-47.3"/>
</g>
<!-- hgj -->
<g id="node3" class="node">
<title>hgj</title>
<polygon fill="lightgrey" stroke="black" points="55,-144.5 55,-180.5 146.75,-180.5 146.75,-144.5 55,-144.5"/>
<text text-anchor="middle" x="100.88" y="-157.7" font-family="Times,serif" font-size="14.00">shape=(16, 1)</text>
</g>
<!-- hgj&#45;&gt;reduce_sum_vht -->
<g id="edge2" class="edge">
<title>hgj&#45;&gt;reduce_sum_vht</title>
<path fill="none" stroke="black" d="M100.88,-144.07C100.88,-136.53 100.88,-127.52 100.88,-119.08"/>
<polygon fill="black" stroke="black" points="104.38,-119.25 100.88,-109.25 97.38,-119.25 104.38,-119.25"/>
</g>
<!-- pow_hgj -->
<g id="node4" class="node">
<title>pow_hgj</title>
<path fill="#ab82ff" stroke="black" d="M89.8,-248.38C89.8,-248.38 68.75,-239.62 68.75,-239.62 63.21,-237.31 63.21,-232.69 68.75,-230.38 68.75,-230.38 89.8,-221.62 89.8,-221.62 95.34,-219.31 106.41,-219.31 111.95,-221.62 111.95,-221.62 133,-230.38 133,-230.38 138.54,-232.69 138.54,-237.31 133,-239.62 133,-239.62 111.95,-248.38 111.95,-248.38 106.41,-250.69 95.34,-250.69 89.8,-248.38"/>
<text text-anchor="middle" x="100.88" y="-229.95" font-family="Times,serif" font-size="14.00">pow</text>
</g>
<!-- pow_hgj&#45;&gt;hgj -->
<g id="edge3" class="edge">
<title>pow_hgj&#45;&gt;hgj</title>
<path fill="none" stroke="black" d="M100.88,-217.29C100.88,-209.68 100.88,-200.45 100.88,-191.8"/>
<polygon fill="black" stroke="black" points="104.38,-192.09 100.88,-182.09 97.38,-192.09 104.38,-192.09"/>
</g>
<!-- jsp -->
<g id="node5" class="node">
<title>jsp</title>
<polygon fill="lightgrey" stroke="black" points="55,-289.5 55,-325.5 146.75,-325.5 146.75,-289.5 55,-289.5"/>
<text text-anchor="middle" x="100.88" y="-302.7" font-family="Times,serif" font-size="14.00">shape=(16, 1)</text>
</g>
<!-- jsp&#45;&gt;pow_hgj -->
<g id="edge4" class="edge">
<title>jsp&#45;&gt;pow_hgj</title>
<path fill="none" stroke="black" d="M100.88,-289.07C100.88,-281.53 100.88,-272.52 100.88,-264.08"/>
<polygon fill="black" stroke="black" points="104.38,-264.25 100.88,-254.25 97.38,-264.25 104.38,-264.25"/>
</g>
<!-- sub_jsp -->
<g id="node6" class="node">
<title>sub_jsp</title>
<path fill="#ffa07a" stroke="black" d="M89.8,-393.38C89.8,-393.38 68.75,-384.62 68.75,-384.62 63.21,-382.31 63.21,-377.69 68.75,-375.38 68.75,-375.38 89.8,-366.62 89.8,-366.62 95.34,-364.31 106.41,-364.31 111.95,-366.62 111.95,-366.62 133,-375.38 133,-375.38 138.54,-377.69 138.54,-382.31 133,-384.62 133,-384.62 111.95,-393.38 111.95,-393.38 106.41,-395.69 95.34,-395.69 89.8,-393.38"/>
<text text-anchor="middle" x="100.88" y="-374.95" font-family="Times,serif" font-size="14.00">sub</text>
</g>
<!-- sub_jsp&#45;&gt;jsp -->
<g id="edge5" class="edge">
<title>sub_jsp&#45;&gt;jsp</title>
<path fill="none" stroke="black" d="M100.88,-362.29C100.88,-354.68 100.88,-345.45 100.88,-336.8"/>
<polygon fill="black" stroke="black" points="104.38,-337.09 100.88,-327.09 97.38,-337.09 104.38,-337.09"/>
</g>
<!-- vbr -->
<g id="node7" class="node">
<title>vbr</title>
<polygon fill="lightgrey" stroke="black" points="0,-434.5 0,-470.5 91.75,-470.5 91.75,-434.5 0,-434.5"/>
<text text-anchor="middle" x="45.88" y="-447.7" font-family="Times,serif" font-size="14.00">shape=(16, 1)</text>
</g>
<!-- vbr&#45;&gt;sub_jsp -->
<g id="edge6" class="edge">
<title>vbr&#45;&gt;sub_jsp</title>
<path fill="none" stroke="black" d="M59.47,-434.07C66.8,-424.68 75.92,-412.99 83.73,-402.98"/>
<polygon fill="black" stroke="black" points="86.39,-405.25 89.78,-395.22 80.87,-400.95 86.39,-405.25"/>
</g>
<!-- matmul_2 -->
<g id="node8" class="node">
<title>matmul_2</title>
<polygon fill="lightgrey" stroke="black" points="110,-434.5 110,-470.5 201.75,-470.5 201.75,-434.5 110,-434.5"/>
<text text-anchor="middle" x="155.88" y="-447.7" font-family="Times,serif" font-size="14.00">shape=(16, 1)</text>
</g>
<!-- matmul_2&#45;&gt;sub_jsp -->
<g id="edge7" class="edge">
<title>matmul_2&#45;&gt;sub_jsp</title>
<path fill="none" stroke="black" d="M142.28,-434.07C134.95,-424.68 125.83,-412.99 118.02,-402.98"/>
<polygon fill="black" stroke="black" points="120.88,-400.95 111.97,-395.22 115.36,-405.25 120.88,-400.95"/>
</g>
<!-- matmul_matmul_2 -->
<g id="node9" class="node">
<title>matmul_matmul_2</title>
<path fill="#ffbbff" stroke="black" d="M144.8,-538.38C144.8,-538.38 123.75,-529.62 123.75,-529.62 118.21,-527.31 118.21,-522.69 123.75,-520.38 123.75,-520.38 144.8,-511.62 144.8,-511.62 150.34,-509.31 161.41,-509.31 166.95,-511.62 166.95,-511.62 188,-520.38 188,-520.38 193.54,-522.69 193.54,-527.31 188,-529.62 188,-529.62 166.95,-538.38 166.95,-538.38 161.41,-540.69 150.34,-540.69 144.8,-538.38"/>
<text text-anchor="middle" x="155.88" y="-519.95" font-family="Times,serif" font-size="14.00">matmul</text>
</g>
<!-- matmul_matmul_2&#45;&gt;matmul_2 -->
<g id="edge8" class="edge">
<title>matmul_matmul_2&#45;&gt;matmul_2</title>
<path fill="none" stroke="black" d="M155.88,-507.29C155.88,-499.68 155.88,-490.45 155.88,-481.8"/>
<polygon fill="black" stroke="black" points="159.38,-482.09 155.88,-472.09 152.38,-482.09 159.38,-482.09"/>
</g>
<!-- relu -->
<g id="node10" class="node">
<title>relu</title>
<polygon fill="lightgrey" stroke="black" points="57,-579.5 57,-615.5 148.75,-615.5 148.75,-579.5 57,-579.5"/>
<text text-anchor="middle" x="102.88" y="-592.7" font-family="Times,serif" font-size="14.00">shape=(16, 4)</text>
</g>
<!-- relu&#45;&gt;matmul_matmul_2 -->
<g id="edge9" class="edge">
<title>relu&#45;&gt;matmul_matmul_2</title>
<path fill="none" stroke="black" d="M115.98,-579.07C123.04,-569.68 131.82,-557.99 139.35,-547.98"/>
<polygon fill="black" stroke="black" points="141.96,-550.33 145.17,-540.23 136.37,-546.12 141.96,-550.33"/>
</g>
<!-- w2 -->
<g id="node11" class="node">
<title>w2</title>
<polygon fill="lightgrey" stroke="black" points="166.38,-579.5 166.38,-615.5 251.38,-615.5 251.38,-579.5 166.38,-579.5"/>
<text text-anchor="middle" x="208.88" y="-592.7" font-family="Times,serif" font-size="14.00">shape=(4, 1)</text>
</g>
<!-- w2&#45;&gt;matmul_matmul_2 -->
<g id="edge10" class="edge">
<title>w2&#45;&gt;matmul_matmul_2</title>
<path fill="none" stroke="black" d="M195.77,-579.07C188.71,-569.68 179.93,-557.99 172.4,-547.98"/>
<polygon fill="black" stroke="black" points="175.38,-546.12 166.58,-540.23 169.79,-550.33 175.38,-546.12"/>
</g>
<!-- relu_relu -->
<g id="node12" class="node">
<title>relu_relu</title>
<path fill="yellow" stroke="black" d="M91.8,-683.38C91.8,-683.38 70.75,-674.62 70.75,-674.62 65.21,-672.31 65.21,-667.69 70.75,-665.38 70.75,-665.38 91.8,-656.62 91.8,-656.62 97.34,-654.31 108.41,-654.31 113.95,-656.62 113.95,-656.62 135,-665.38 135,-665.38 140.54,-667.69 140.54,-672.31 135,-674.62 135,-674.62 113.95,-683.38 113.95,-683.38 108.41,-685.69 97.34,-685.69 91.8,-683.38"/>
<text text-anchor="middle" x="102.88" y="-664.95" font-family="Times,serif" font-size="14.00">relu</text>
</g>
<!-- relu_relu&#45;&gt;relu -->
<g id="edge11" class="edge">
<title>relu_relu&#45;&gt;relu</title>
<path fill="none" stroke="black" d="M102.88,-652.29C102.88,-644.68 102.88,-635.45 102.88,-626.8"/>
<polygon fill="black" stroke="black" points="106.38,-627.09 102.88,-617.09 99.38,-627.09 106.38,-627.09"/>
</g>
<!-- matmul_1 -->
<g id="node13" class="node">
<title>matmul_1</title>
<polygon fill="lightgrey" stroke="black" points="57,-724.5 57,-760.5 148.75,-760.5 148.75,-724.5 57,-724.5"/>
<text text-anchor="middle" x="102.88" y="-737.7" font-family="Times,serif" font-size="14.00">shape=(16, 4)</text>
</g>
<!-- matmul_1&#45;&gt;relu_relu -->
<g id="edge12" class="edge">
<title>matmul_1&#45;&gt;relu_relu</title>
<path fill="none" stroke="black" d="M102.88,-724.07C102.88,-716.53 102.88,-707.52 102.88,-699.08"/>
<polygon fill="black" stroke="black" points="106.38,-699.25 102.88,-689.25 99.38,-699.25 106.38,-699.25"/>
</g>
<!-- matmul_matmul_1 -->
<g id="node14" class="node">
<title>matmul_matmul_1</title>
<path fill="#ffbbff" stroke="black" d="M91.8,-828.38C91.8,-828.38 70.75,-819.62 70.75,-819.62 65.21,-817.31 65.21,-812.69 70.75,-810.38 70.75,-810.38 91.8,-801.62 91.8,-801.62 97.34,-799.31 108.41,-799.31 113.95,-801.62 113.95,-801.62 135,-810.38 135,-810.38 140.54,-812.69 140.54,-817.31 135,-819.62 135,-819.62 113.95,-828.38 113.95,-828.38 108.41,-830.69 97.34,-830.69 91.8,-828.38"/>
<text text-anchor="middle" x="102.88" y="-809.95" font-family="Times,serif" font-size="14.00">matmul</text>
</g>
<!-- matmul_matmul_1&#45;&gt;matmul_1 -->
<g id="edge13" class="edge">
<title>matmul_matmul_1&#45;&gt;matmul_1</title>
<path fill="none" stroke="black" d="M102.88,-797.29C102.88,-789.68 102.88,-780.45 102.88,-771.8"/>
<polygon fill="black" stroke="black" points="106.38,-772.09 102.88,-762.09 99.38,-772.09 106.38,-772.09"/>
</g>
<!-- x -->
<g id="node15" class="node">
<title>x</title>
<polygon fill="lightgrey" stroke="black" points="4,-869.5 4,-905.5 95.75,-905.5 95.75,-869.5 4,-869.5"/>
<text text-anchor="middle" x="49.88" y="-882.7" font-family="Times,serif" font-size="14.00">shape=(16, 2)</text>
</g>
<!-- x&#45;&gt;matmul_matmul_1 -->
<g id="edge14" class="edge">
<title>x&#45;&gt;matmul_matmul_1</title>
<path fill="none" stroke="black" d="M62.98,-869.07C70.04,-859.68 78.82,-847.99 86.35,-837.98"/>
<polygon fill="black" stroke="black" points="88.96,-840.33 92.17,-830.23 83.37,-836.12 88.96,-840.33"/>
</g>
<!-- w1 -->
<g id="node16" class="node">
<title>w1</title>
<polygon fill="lightgrey" stroke="black" points="113.38,-869.5 113.38,-905.5 198.38,-905.5 198.38,-869.5 113.38,-869.5"/>
<text text-anchor="middle" x="155.88" y="-882.7" font-family="Times,serif" font-size="14.00">shape=(2, 4)</text>
</g>
<!-- w1&#45;&gt;matmul_matmul_1 -->
<g id="edge15" class="edge">
<title>w1&#45;&gt;matmul_matmul_1</title>
<path fill="none" stroke="black" d="M142.77,-869.07C135.71,-859.68 126.93,-847.99 119.4,-837.98"/>
<polygon fill="black" stroke="black" points="122.38,-836.12 113.58,-830.23 116.79,-840.33 122.38,-836.12"/>
</g>
</g>
</svg>
